<svg width="99" height="84" viewBox="0 0 99 84" fill="none" xmlns="http://www.w3.org/2000/svg">
<path fill-rule="evenodd" clip-rule="evenodd" d="M34.7495 1.46087L33.1668 0.130859L31.5633 1.43558L6.41789 21.8949L0.961914 26.3341H7.99571H15.3743V42.9734V45.4734H17.8743H81.2659V64.6027C80.8946 64.6027 73.2543 65.331 72.6573 65.8684C72.5124 66.5289 73.3515 66.7998 73.8938 66.9748C74.0029 67.0101 74.1001 67.0414 74.1747 67.0713C74.7059 67.2328 75.2865 67.3899 76.0193 67.5882L76.0197 67.5883C76.7892 67.7966 77.7265 68.0503 78.9506 68.4021C79.6743 68.6101 80.2007 68.7348 80.603 68.8301L80.6031 68.8302C81.4879 69.0398 81.7724 69.1072 82.2341 69.6049C82.5416 69.9364 82.5449 69.9564 82.7217 71.0051C82.8031 71.4875 82.9211 72.1875 83.1223 73.2356C83.4752 75.0742 83.6891 76.4457 83.9047 77.8278C84.0886 79.0068 84.2738 80.1936 84.5474 81.6846C84.5583 81.744 84.569 81.8024 84.5794 81.8598C84.5885 81.9099 84.5975 81.9593 84.6063 82.008C84.8185 83.1775 84.9528 83.9178 85.2937 83.988C85.6381 84.0588 85.7074 83.822 85.8972 83.1735C85.9119 83.123 85.9275 83.07 85.9439 83.0144C86.1531 82.3071 87.0701 78.5326 87.3309 77.4591L87.3313 77.4575L87.3547 77.361C87.3991 77.1785 87.4375 77.0021 87.4736 76.8365C87.6188 76.1704 87.7257 75.6803 88.023 75.6803C88.3902 75.6803 89.8444 75.8465 91.1692 75.998L91.1696 75.998L91.2138 76.0031C93.0976 76.2184 96.8277 76.3365 97.7061 76.1822C98.351 76.0689 98.9996 75.7747 98.9996 75.3633C98.9996 75.0306 98.9996 74.9794 96.9847 74.186C96.5466 74.0135 95.4665 73.6442 94.2659 73.2336L94.2656 73.2335C92.4613 72.6165 90.3847 71.9064 89.8051 71.6312C88.6523 71.0838 88.6171 70.8672 88.8398 69.8741C88.9866 69.2196 89.4881 66.8398 89.8556 65.0962L89.8562 65.0934C90.0461 64.1924 90.2001 63.4618 90.2506 63.2275C90.3763 62.646 90.8561 62.5506 91.3754 62.4474L91.3755 62.4474C91.4701 62.4286 91.5661 62.4095 91.6615 62.3872C93.0083 62.0718 93.3089 61.9709 93.8082 61.8032L93.8891 61.776C96.1118 61.0311 95.084 60.8105 94.0908 60.5973C94.023 60.5828 93.9555 60.5683 93.8891 60.5536C93.0574 60.3703 90.8199 60.1716 89.8051 60.0952V41.9891H89.4616V40.4734H20.3743V23.8341V21.3341H17.8743H15.0295L33.1153 6.6187L39.9359 12.3505L40.4355 12.7703L40.432 12.7743L58.5116 28.0302L61.7337 24.2101L45.2019 10.2603L47.2028 8.20161L58.3869 17.202L62.4543 20.4753V15.2544V9.70265H63.0992V19.7422V20.8859L63.9645 21.6337L70.3791 27.1775L73.6485 23.3946L68.0992 18.5986V7.20265V4.70265H65.5992H59.9543H57.4543V7.20265V10.0335L48.5641 2.8791L46.7906 1.45188L45.204 3.0843L41.3724 7.02652L34.7495 1.46087Z" fill="#FF9800"/>
<path d="M26.756 58V48.28H28.904V52.132H29.12L30.548 48.28H32.684L30.908 52.84L32.744 58H30.536L29.12 53.764H28.904V58H26.756ZM34.4632 58V49.876H32.9992V48.28H38.0752V49.876H36.6232V58H34.4632ZM41.7149 58.144C40.9869 58.144 40.4109 58.016 39.9869 57.76C39.5629 57.504 39.2589 57.136 39.0749 56.656C38.8909 56.176 38.7989 55.604 38.7989 54.94V51.328C38.7989 50.656 38.8909 50.084 39.0749 49.612C39.2589 49.14 39.5629 48.78 39.9869 48.532C40.4109 48.276 40.9869 48.148 41.7149 48.148C42.4509 48.148 43.0309 48.276 43.4549 48.532C43.8869 48.78 44.1949 49.14 44.3789 49.612C44.5629 50.084 44.6549 50.656 44.6549 51.328V54.94C44.6549 55.604 44.5629 56.176 44.3789 56.656C44.1949 57.136 43.8869 57.504 43.4549 57.76C43.0309 58.016 42.4509 58.144 41.7149 58.144ZM41.7149 56.62C41.9389 56.62 42.1029 56.564 42.2069 56.452C42.3109 56.34 42.3789 56.196 42.4109 56.02C42.4429 55.844 42.4589 55.664 42.4589 55.48V50.8C42.4589 50.608 42.4429 50.428 42.4109 50.26C42.3789 50.084 42.3109 49.94 42.2069 49.828C42.1029 49.716 41.9389 49.66 41.7149 49.66C41.5069 49.66 41.3509 49.716 41.2469 49.828C41.1429 49.94 41.0749 50.084 41.0429 50.26C41.0109 50.428 40.9949 50.608 40.9949 50.8V55.48C40.9949 55.664 41.0069 55.844 41.0309 56.02C41.0629 56.196 41.1269 56.34 41.2229 56.452C41.3269 56.564 41.4909 56.62 41.7149 56.62ZM46.8382 58V49.876H45.3742V48.28H50.4502V49.876H48.9982V58H46.8382ZM54.0899 58.144C53.3619 58.144 52.7859 58.016 52.3619 57.76C51.9379 57.504 51.6339 57.136 51.4499 56.656C51.2659 56.176 51.1739 55.604 51.1739 54.94V51.328C51.1739 50.656 51.2659 50.084 51.4499 49.612C51.6339 49.14 51.9379 48.78 52.3619 48.532C52.7859 48.276 53.3619 48.148 54.0899 48.148C54.8259 48.148 55.4059 48.276 55.8299 48.532C56.2619 48.78 56.5699 49.14 56.7539 49.612C56.9379 50.084 57.0299 50.656 57.0299 51.328V54.94C57.0299 55.604 56.9379 56.176 56.7539 56.656C56.5699 57.136 56.2619 57.504 55.8299 57.76C55.4059 58.016 54.8259 58.144 54.0899 58.144ZM54.0899 56.62C54.3139 56.62 54.4779 56.564 54.5819 56.452C54.6859 56.34 54.7539 56.196 54.7859 56.02C54.8179 55.844 54.8339 55.664 54.8339 55.48V50.8C54.8339 50.608 54.8179 50.428 54.7859 50.26C54.7539 50.084 54.6859 49.94 54.5819 49.828C54.4779 49.716 54.3139 49.66 54.0899 49.66C53.8819 49.66 53.7259 49.716 53.6219 49.828C53.5179 49.94 53.4499 50.084 53.4179 50.26C53.3859 50.428 53.3699 50.608 53.3699 50.8V55.48C53.3699 55.664 53.3819 55.844 53.4059 56.02C53.4379 56.196 53.5019 56.34 53.5979 56.452C53.7019 56.564 53.8659 56.62 54.0899 56.62Z" fill="#012849"/>
<path d="M26.756 38V28.28H28.904V32.132H29.12L30.548 28.28H32.684L30.908 32.84L32.744 38H30.536L29.12 33.764H28.904V38H26.756ZM34.4632 38V29.876H32.9992V28.28H38.0752V29.876H36.6232V38H34.4632ZM41.7149 38.144C40.9869 38.144 40.4109 38.016 39.9869 37.76C39.5629 37.504 39.2589 37.136 39.0749 36.656C38.8909 36.176 38.7989 35.604 38.7989 34.94V31.328C38.7989 30.656 38.8909 30.084 39.0749 29.612C39.2589 29.14 39.5629 28.78 39.9869 28.532C40.4109 28.276 40.9869 28.148 41.7149 28.148C42.4509 28.148 43.0309 28.276 43.4549 28.532C43.8869 28.78 44.1949 29.14 44.3789 29.612C44.5629 30.084 44.6549 30.656 44.6549 31.328V34.94C44.6549 35.604 44.5629 36.176 44.3789 36.656C44.1949 37.136 43.8869 37.504 43.4549 37.76C43.0309 38.016 42.4509 38.144 41.7149 38.144ZM41.7149 36.62C41.9389 36.62 42.1029 36.564 42.2069 36.452C42.3109 36.34 42.3789 36.196 42.4109 36.02C42.4429 35.844 42.4589 35.664 42.4589 35.48V30.8C42.4589 30.608 42.4429 30.428 42.4109 30.26C42.3789 30.084 42.3109 29.94 42.2069 29.828C42.1029 29.716 41.9389 29.66 41.7149 29.66C41.5069 29.66 41.3509 29.716 41.2469 29.828C41.1429 29.94 41.0749 30.084 41.0429 30.26C41.0109 30.428 40.9949 30.608 40.9949 30.8V35.48C40.9949 35.664 41.0069 35.844 41.0309 36.02C41.0629 36.196 41.1269 36.34 41.2229 36.452C41.3269 36.564 41.4909 36.62 41.7149 36.62ZM46.8382 38V29.876H45.3742V28.28H50.4502V29.876H48.9982V38H46.8382ZM54.0899 38.144C53.3619 38.144 52.7859 38.016 52.3619 37.76C51.9379 37.504 51.6339 37.136 51.4499 36.656C51.2659 36.176 51.1739 35.604 51.1739 34.94V31.328C51.1739 30.656 51.2659 30.084 51.4499 29.612C51.6339 29.14 51.9379 28.78 52.3619 28.532C52.7859 28.276 53.3619 28.148 54.0899 28.148C54.8259 28.148 55.4059 28.276 55.8299 28.532C56.2619 28.78 56.5699 29.14 56.7539 29.612C56.9379 30.084 57.0299 30.656 57.0299 31.328V34.94C57.0299 35.604 56.9379 36.176 56.7539 36.656C56.5699 37.136 56.2619 37.504 55.8299 37.76C55.4059 38.016 54.8259 38.144 54.0899 38.144ZM54.0899 36.62C54.3139 36.62 54.4779 36.564 54.5819 36.452C54.6859 36.34 54.7539 36.196 54.7859 36.02C54.8179 35.844 54.8339 35.664 54.8339 35.48V30.8C54.8339 30.608 54.8179 30.428 54.7859 30.26C54.7539 30.084 54.6859 29.94 54.5819 29.828C54.4779 29.716 54.3139 29.66 54.0899 29.66C53.8819 29.66 53.7259 29.716 53.6219 29.828C53.5179 29.94 53.4499 30.084 53.4179 30.26C53.3859 30.428 53.3699 30.608 53.3699 30.8V35.48C53.3699 35.664 53.3819 35.844 53.4059 36.02C53.4379 36.196 53.5019 36.34 53.5979 36.452C53.7019 36.564 53.8659 36.62 54.0899 36.62ZM61.4555 34.412V33.164H64.5635V34.412H61.4555Z" fill="#012849"/>
</svg>
